# xmcd
#
# Track frame offsets:
#	150
#	18368
#	31845
#	44266
#	54857
#	70349
#	82774
#	96481
#	110690
#	121845
#	140633
#	159003
#
# Disc length: 2310 seconds
#
# Revision: 0
# Processed by: cddbd v1.5.2PL0 Copyright (c) Steve Scherf et al.
# Submitted via: EasyCDDAExtractor 2010.4.0.0
#
DISCID=9009040c
DTITLE=Don Williams - Icon
DYEAR=1999
DGENRE=Country
TTITLE0=I Believe in You
TTITLE1=I Wouldn't Want To Live  If You Didn't Love Me
TTITLE2=Your'e My Best Friend
TTITLE3=(Turn Out The Light) And Love Me Tonight
TTITLE4=Till The Rivers All Run Dry
TTITLE5=Some Broken Hearts Never Mend
TTITLE6=I'm Just A Country Boy
TTITLE7=Tulsa Time
TTITLE8=It Must Be Love
TTITLE9=Good Ole Boys Like Me
TTITLE10=Lord I Hope This Day Is Good
TTITLE11=If Hollywood Don't Need You
EXTD=
EXTT0=
EXTT1=
EXTT2=
EXTT3=
EXTT4=
EXTT5=
EXTT6=
EXTT7=
EXTT8=
EXTT9=
EXTT10=
EXTT11=
PLAYORDER=
